<mxfile host="app.diagrams.net" modified="2020-08-05T09:29:35.132Z" agent="5.0 (Windows)" etag="q2PCcQbNcpc89Q_LfYLW" version="13.5.9" type="github">
  <diagram id="5FtMODj4gZP2zVgz333n" name="Page-1">
    <mxGraphModel dx="2433" dy="684" grid="1" gridSize="10" guides="1" tooltips="1" connect="1" arrows="1" fold="1" page="1" pageScale="1" pageWidth="850" pageHeight="1100" math="0" shadow="0">
      <root>
        <mxCell id="0" />
        <mxCell id="1" parent="0" />
        <mxCell id="za5M4Lm3zeaTr9uUQPM4-1" value="" style="ellipse;html=1;shape=startState;fillColor=#000000;strokeColor=#ff0000;" vertex="1" parent="1">
          <mxGeometry x="425" y="80" width="30" height="30" as="geometry" />
        </mxCell>
        <mxCell id="za5M4Lm3zeaTr9uUQPM4-2" value="" style="edgeStyle=orthogonalEdgeStyle;html=1;verticalAlign=bottom;endArrow=open;endSize=8;strokeColor=#ff0000;" edge="1" source="za5M4Lm3zeaTr9uUQPM4-1" parent="1">
          <mxGeometry relative="1" as="geometry">
            <mxPoint x="440" y="140" as="targetPoint" />
          </mxGeometry>
        </mxCell>
        <mxCell id="za5M4Lm3zeaTr9uUQPM4-6" value="Login" style="rounded=1;whiteSpace=wrap;html=1;arcSize=40;fontColor=#000000;fillColor=#ffffc0;strokeColor=#ff0000;" vertex="1" parent="1">
          <mxGeometry x="410" y="140" width="60" height="30" as="geometry" />
        </mxCell>
        <mxCell id="za5M4Lm3zeaTr9uUQPM4-7" value="" style="edgeStyle=orthogonalEdgeStyle;html=1;verticalAlign=bottom;endArrow=open;endSize=8;strokeColor=#ff0000;" edge="1" source="za5M4Lm3zeaTr9uUQPM4-8" parent="1">
          <mxGeometry relative="1" as="geometry">
            <mxPoint x="440" y="240" as="targetPoint" />
          </mxGeometry>
        </mxCell>
        <mxCell id="za5M4Lm3zeaTr9uUQPM4-12" style="edgeStyle=none;rounded=0;orthogonalLoop=1;jettySize=auto;html=1;exitX=0.5;exitY=1;exitDx=0;exitDy=0;entryX=0.421;entryY=-0.136;entryDx=0;entryDy=0;entryPerimeter=0;" edge="1" parent="1" source="za5M4Lm3zeaTr9uUQPM4-8" target="za5M4Lm3zeaTr9uUQPM4-15">
          <mxGeometry relative="1" as="geometry">
            <mxPoint x="362.5" y="291.0000000000001" as="targetPoint" />
          </mxGeometry>
        </mxCell>
        <mxCell id="za5M4Lm3zeaTr9uUQPM4-13" style="edgeStyle=none;rounded=0;orthogonalLoop=1;jettySize=auto;html=1;exitX=0.5;exitY=1;exitDx=0;exitDy=0;entryX=0.5;entryY=0;entryDx=0;entryDy=0;" edge="1" parent="1" source="za5M4Lm3zeaTr9uUQPM4-8" target="za5M4Lm3zeaTr9uUQPM4-19">
          <mxGeometry relative="1" as="geometry">
            <mxPoint x="480" y="280" as="targetPoint" />
          </mxGeometry>
        </mxCell>
        <mxCell id="za5M4Lm3zeaTr9uUQPM4-8" value="" style="rhombus;whiteSpace=wrap;html=1;fillColor=#ffffc0;strokeColor=#ff0000;" vertex="1" parent="1">
          <mxGeometry x="420" y="200" width="40" height="40" as="geometry" />
        </mxCell>
        <mxCell id="za5M4Lm3zeaTr9uUQPM4-14" value="" style="edgeStyle=orthogonalEdgeStyle;html=1;verticalAlign=bottom;endArrow=open;endSize=8;strokeColor=#ff0000;" edge="1" parent="1" source="za5M4Lm3zeaTr9uUQPM4-6" target="za5M4Lm3zeaTr9uUQPM4-8">
          <mxGeometry relative="1" as="geometry">
            <mxPoint x="440" y="240" as="targetPoint" />
            <mxPoint x="440" y="180" as="sourcePoint" />
          </mxGeometry>
        </mxCell>
        <mxCell id="za5M4Lm3zeaTr9uUQPM4-27" style="edgeStyle=none;rounded=0;orthogonalLoop=1;jettySize=auto;html=1;exitX=0.5;exitY=1;exitDx=0;exitDy=0;entryX=0.5;entryY=0;entryDx=0;entryDy=0;" edge="1" parent="1" source="za5M4Lm3zeaTr9uUQPM4-15" target="za5M4Lm3zeaTr9uUQPM4-23">
          <mxGeometry relative="1" as="geometry" />
        </mxCell>
        <mxCell id="za5M4Lm3zeaTr9uUQPM4-15" value="memasukkan username " style="rounded=1;whiteSpace=wrap;html=1;arcSize=40;fontColor=#000000;fillColor=#ffffc0;strokeColor=#ff0000;" vertex="1" parent="1">
          <mxGeometry x="315" y="280" width="110" height="40" as="geometry" />
        </mxCell>
        <mxCell id="za5M4Lm3zeaTr9uUQPM4-26" style="edgeStyle=none;rounded=0;orthogonalLoop=1;jettySize=auto;html=1;exitX=0.5;exitY=1;exitDx=0;exitDy=0;entryX=0.5;entryY=0;entryDx=0;entryDy=0;" edge="1" parent="1" source="za5M4Lm3zeaTr9uUQPM4-19" target="za5M4Lm3zeaTr9uUQPM4-23">
          <mxGeometry relative="1" as="geometry" />
        </mxCell>
        <mxCell id="za5M4Lm3zeaTr9uUQPM4-19" value="memasukkan password" style="rounded=1;whiteSpace=wrap;html=1;arcSize=40;fontColor=#000000;fillColor=#ffffc0;strokeColor=#ff0000;" vertex="1" parent="1">
          <mxGeometry x="466" y="280" width="104" height="40" as="geometry" />
        </mxCell>
        <mxCell id="za5M4Lm3zeaTr9uUQPM4-46" style="edgeStyle=none;rounded=0;orthogonalLoop=1;jettySize=auto;html=1;exitX=0.5;exitY=1;exitDx=0;exitDy=0;entryX=0.5;entryY=0;entryDx=0;entryDy=0;" edge="1" parent="1" source="za5M4Lm3zeaTr9uUQPM4-23" target="za5M4Lm3zeaTr9uUQPM4-44">
          <mxGeometry relative="1" as="geometry" />
        </mxCell>
        <mxCell id="za5M4Lm3zeaTr9uUQPM4-47" style="edgeStyle=none;rounded=0;orthogonalLoop=1;jettySize=auto;html=1;exitX=0.5;exitY=1;exitDx=0;exitDy=0;entryX=0.5;entryY=0;entryDx=0;entryDy=0;" edge="1" parent="1" source="za5M4Lm3zeaTr9uUQPM4-23" target="za5M4Lm3zeaTr9uUQPM4-40">
          <mxGeometry relative="1" as="geometry" />
        </mxCell>
        <mxCell id="za5M4Lm3zeaTr9uUQPM4-49" style="edgeStyle=none;rounded=0;orthogonalLoop=1;jettySize=auto;html=1;exitX=0.5;exitY=1;exitDx=0;exitDy=0;entryX=0.603;entryY=0.043;entryDx=0;entryDy=0;entryPerimeter=0;" edge="1" parent="1" source="za5M4Lm3zeaTr9uUQPM4-23" target="za5M4Lm3zeaTr9uUQPM4-32">
          <mxGeometry relative="1" as="geometry" />
        </mxCell>
        <mxCell id="za5M4Lm3zeaTr9uUQPM4-50" style="edgeStyle=none;rounded=0;orthogonalLoop=1;jettySize=auto;html=1;exitX=0.5;exitY=1;exitDx=0;exitDy=0;entryX=0.5;entryY=0;entryDx=0;entryDy=0;" edge="1" parent="1" source="za5M4Lm3zeaTr9uUQPM4-23" target="za5M4Lm3zeaTr9uUQPM4-30">
          <mxGeometry relative="1" as="geometry" />
        </mxCell>
        <mxCell id="za5M4Lm3zeaTr9uUQPM4-51" style="edgeStyle=none;rounded=0;orthogonalLoop=1;jettySize=auto;html=1;exitX=0.5;exitY=1;exitDx=0;exitDy=0;entryX=0.5;entryY=0;entryDx=0;entryDy=0;" edge="1" parent="1" source="za5M4Lm3zeaTr9uUQPM4-23" target="za5M4Lm3zeaTr9uUQPM4-34">
          <mxGeometry relative="1" as="geometry" />
        </mxCell>
        <mxCell id="za5M4Lm3zeaTr9uUQPM4-52" style="edgeStyle=none;rounded=0;orthogonalLoop=1;jettySize=auto;html=1;exitX=0.5;exitY=1;exitDx=0;exitDy=0;entryX=0.5;entryY=0;entryDx=0;entryDy=0;" edge="1" parent="1" source="za5M4Lm3zeaTr9uUQPM4-23" target="za5M4Lm3zeaTr9uUQPM4-36">
          <mxGeometry relative="1" as="geometry" />
        </mxCell>
        <mxCell id="za5M4Lm3zeaTr9uUQPM4-53" style="edgeStyle=none;rounded=0;orthogonalLoop=1;jettySize=auto;html=1;exitX=0.5;exitY=1;exitDx=0;exitDy=0;entryX=0.5;entryY=0;entryDx=0;entryDy=0;" edge="1" parent="1" source="za5M4Lm3zeaTr9uUQPM4-23" target="za5M4Lm3zeaTr9uUQPM4-38">
          <mxGeometry relative="1" as="geometry" />
        </mxCell>
        <mxCell id="za5M4Lm3zeaTr9uUQPM4-54" style="edgeStyle=none;rounded=0;orthogonalLoop=1;jettySize=auto;html=1;exitX=0.5;exitY=1;exitDx=0;exitDy=0;entryX=0.5;entryY=0;entryDx=0;entryDy=0;" edge="1" parent="1" source="za5M4Lm3zeaTr9uUQPM4-23" target="za5M4Lm3zeaTr9uUQPM4-28">
          <mxGeometry relative="1" as="geometry" />
        </mxCell>
        <mxCell id="za5M4Lm3zeaTr9uUQPM4-23" value="" style="rhombus;whiteSpace=wrap;html=1;fillColor=#ffffc0;strokeColor=#ff0000;" vertex="1" parent="1">
          <mxGeometry x="422.5" y="390" width="35" height="40" as="geometry" />
        </mxCell>
        <mxCell id="za5M4Lm3zeaTr9uUQPM4-106" style="edgeStyle=none;rounded=0;orthogonalLoop=1;jettySize=auto;html=1;exitX=0.5;exitY=1;exitDx=0;exitDy=0;entryX=0.5;entryY=0;entryDx=0;entryDy=0;" edge="1" parent="1" source="za5M4Lm3zeaTr9uUQPM4-28" target="za5M4Lm3zeaTr9uUQPM4-98">
          <mxGeometry relative="1" as="geometry" />
        </mxCell>
        <mxCell id="za5M4Lm3zeaTr9uUQPM4-28" value="kelola kriteria" style="rounded=1;whiteSpace=wrap;html=1;arcSize=40;fontColor=#000000;fillColor=#ffffc0;strokeColor=#ff0000;" vertex="1" parent="1">
          <mxGeometry x="150" y="510" width="120" height="40" as="geometry" />
        </mxCell>
        <mxCell id="za5M4Lm3zeaTr9uUQPM4-111" style="edgeStyle=none;rounded=0;orthogonalLoop=1;jettySize=auto;html=1;exitX=0.5;exitY=1;exitDx=0;exitDy=0;entryX=0.5;entryY=0;entryDx=0;entryDy=0;" edge="1" parent="1" source="za5M4Lm3zeaTr9uUQPM4-30" target="za5M4Lm3zeaTr9uUQPM4-108">
          <mxGeometry relative="1" as="geometry" />
        </mxCell>
        <mxCell id="za5M4Lm3zeaTr9uUQPM4-30" value="kelola aturan" style="rounded=1;whiteSpace=wrap;html=1;arcSize=40;fontColor=#000000;fillColor=#ffffc0;strokeColor=#ff0000;" vertex="1" parent="1">
          <mxGeometry x="300" y="510" width="120" height="40" as="geometry" />
        </mxCell>
        <mxCell id="za5M4Lm3zeaTr9uUQPM4-114" style="edgeStyle=none;rounded=0;orthogonalLoop=1;jettySize=auto;html=1;exitX=0.5;exitY=1;exitDx=0;exitDy=0;entryX=0.5;entryY=0;entryDx=0;entryDy=0;" edge="1" parent="1" source="za5M4Lm3zeaTr9uUQPM4-32" target="za5M4Lm3zeaTr9uUQPM4-83">
          <mxGeometry relative="1" as="geometry" />
        </mxCell>
        <mxCell id="za5M4Lm3zeaTr9uUQPM4-32" value="kelola nilai " style="rounded=1;whiteSpace=wrap;html=1;arcSize=40;fontColor=#000000;fillColor=#ffffc0;strokeColor=#ff0000;" vertex="1" parent="1">
          <mxGeometry x="457.5" y="510" width="120" height="40" as="geometry" />
        </mxCell>
        <mxCell id="za5M4Lm3zeaTr9uUQPM4-136" style="edgeStyle=none;rounded=0;orthogonalLoop=1;jettySize=auto;html=1;exitX=0.5;exitY=1;exitDx=0;exitDy=0;entryX=0.794;entryY=0.393;entryDx=0;entryDy=0;entryPerimeter=0;" edge="1" parent="1" source="za5M4Lm3zeaTr9uUQPM4-34" target="za5M4Lm3zeaTr9uUQPM4-134">
          <mxGeometry relative="1" as="geometry" />
        </mxCell>
        <mxCell id="za5M4Lm3zeaTr9uUQPM4-34" value="melihat perhitungan" style="rounded=1;whiteSpace=wrap;html=1;arcSize=40;fontColor=#000000;fillColor=#ffffc0;strokeColor=#ff0000;" vertex="1" parent="1">
          <mxGeometry x="600" y="510" width="120" height="40" as="geometry" />
        </mxCell>
        <mxCell id="za5M4Lm3zeaTr9uUQPM4-137" style="edgeStyle=none;rounded=0;orthogonalLoop=1;jettySize=auto;html=1;exitX=0.5;exitY=1;exitDx=0;exitDy=0;entryX=0.876;entryY=0.75;entryDx=0;entryDy=0;entryPerimeter=0;" edge="1" parent="1" source="za5M4Lm3zeaTr9uUQPM4-36" target="za5M4Lm3zeaTr9uUQPM4-134">
          <mxGeometry relative="1" as="geometry" />
        </mxCell>
        <mxCell id="za5M4Lm3zeaTr9uUQPM4-36" value="melihat hasil" style="rounded=1;whiteSpace=wrap;html=1;arcSize=40;fontColor=#000000;fillColor=#ffffc0;strokeColor=#ff0000;" vertex="1" parent="1">
          <mxGeometry x="750" y="510" width="120" height="40" as="geometry" />
        </mxCell>
        <mxCell id="za5M4Lm3zeaTr9uUQPM4-84" style="edgeStyle=none;rounded=0;orthogonalLoop=1;jettySize=auto;html=1;exitX=0.5;exitY=1;exitDx=0;exitDy=0;entryX=0.5;entryY=0;entryDx=0;entryDy=0;" edge="1" parent="1" source="za5M4Lm3zeaTr9uUQPM4-38" target="za5M4Lm3zeaTr9uUQPM4-82">
          <mxGeometry relative="1" as="geometry" />
        </mxCell>
        <mxCell id="za5M4Lm3zeaTr9uUQPM4-38" value="keloa ubah password" style="rounded=1;whiteSpace=wrap;html=1;arcSize=40;fontColor=#000000;fillColor=#ffffc0;strokeColor=#ff0000;" vertex="1" parent="1">
          <mxGeometry x="900" y="510" width="120" height="40" as="geometry" />
        </mxCell>
        <mxCell id="za5M4Lm3zeaTr9uUQPM4-105" style="edgeStyle=none;rounded=0;orthogonalLoop=1;jettySize=auto;html=1;exitX=0.5;exitY=1;exitDx=0;exitDy=0;entryX=0.5;entryY=0;entryDx=0;entryDy=0;" edge="1" parent="1" source="za5M4Lm3zeaTr9uUQPM4-40" target="za5M4Lm3zeaTr9uUQPM4-57">
          <mxGeometry relative="1" as="geometry" />
        </mxCell>
        <mxCell id="za5M4Lm3zeaTr9uUQPM4-40" value="kelola atlit" style="rounded=1;whiteSpace=wrap;html=1;arcSize=40;fontColor=#000000;fillColor=#ffffc0;strokeColor=#ff0000;" vertex="1" parent="1">
          <mxGeometry y="510" width="120" height="40" as="geometry" />
        </mxCell>
        <mxCell id="za5M4Lm3zeaTr9uUQPM4-135" style="edgeStyle=none;rounded=0;orthogonalLoop=1;jettySize=auto;html=1;exitX=0.5;exitY=1;exitDx=0;exitDy=0;entryX=0.132;entryY=0.393;entryDx=0;entryDy=0;entryPerimeter=0;" edge="1" parent="1" source="za5M4Lm3zeaTr9uUQPM4-44" target="za5M4Lm3zeaTr9uUQPM4-134">
          <mxGeometry relative="1" as="geometry" />
        </mxCell>
        <mxCell id="za5M4Lm3zeaTr9uUQPM4-44" value="melihat beranda" style="rounded=1;whiteSpace=wrap;html=1;arcSize=40;fontColor=#000000;fillColor=#ffffc0;strokeColor=#ff0000;" vertex="1" parent="1">
          <mxGeometry x="-280" y="510" width="120" height="40" as="geometry" />
        </mxCell>
        <mxCell id="za5M4Lm3zeaTr9uUQPM4-56" value="" style="line;strokeWidth=1;fillColor=none;align=left;verticalAlign=middle;spacingTop=-1;spacingLeft=3;spacingRight=3;rotatable=0;labelPosition=right;points=[];portConstraint=eastwest;" vertex="1" parent="1">
          <mxGeometry x="-62.5" y="795.5" width="90" height="22" as="geometry" />
        </mxCell>
        <mxCell id="za5M4Lm3zeaTr9uUQPM4-78" style="edgeStyle=none;rounded=0;orthogonalLoop=1;jettySize=auto;html=1;exitX=0.5;exitY=1;exitDx=0;exitDy=0;entryX=0.6;entryY=0;entryDx=0;entryDy=0;entryPerimeter=0;" edge="1" parent="1" source="za5M4Lm3zeaTr9uUQPM4-57" target="za5M4Lm3zeaTr9uUQPM4-102">
          <mxGeometry relative="1" as="geometry">
            <mxPoint x="-97" y="660" as="targetPoint" />
          </mxGeometry>
        </mxCell>
        <mxCell id="za5M4Lm3zeaTr9uUQPM4-79" style="edgeStyle=none;rounded=0;orthogonalLoop=1;jettySize=auto;html=1;exitX=0.5;exitY=1;exitDx=0;exitDy=0;entryX=0.75;entryY=0;entryDx=0;entryDy=0;" edge="1" parent="1" source="za5M4Lm3zeaTr9uUQPM4-57" target="za5M4Lm3zeaTr9uUQPM4-64">
          <mxGeometry relative="1" as="geometry" />
        </mxCell>
        <mxCell id="za5M4Lm3zeaTr9uUQPM4-80" style="edgeStyle=none;rounded=0;orthogonalLoop=1;jettySize=auto;html=1;exitX=0.5;exitY=1;exitDx=0;exitDy=0;entryX=0.5;entryY=0;entryDx=0;entryDy=0;" edge="1" parent="1" source="za5M4Lm3zeaTr9uUQPM4-57" target="za5M4Lm3zeaTr9uUQPM4-65">
          <mxGeometry relative="1" as="geometry" />
        </mxCell>
        <mxCell id="za5M4Lm3zeaTr9uUQPM4-81" style="edgeStyle=none;rounded=0;orthogonalLoop=1;jettySize=auto;html=1;exitX=0.5;exitY=1;exitDx=0;exitDy=0;entryX=0.5;entryY=0;entryDx=0;entryDy=0;" edge="1" parent="1" source="za5M4Lm3zeaTr9uUQPM4-57" target="za5M4Lm3zeaTr9uUQPM4-63">
          <mxGeometry relative="1" as="geometry" />
        </mxCell>
        <mxCell id="za5M4Lm3zeaTr9uUQPM4-57" value="" style="rhombus;whiteSpace=wrap;html=1;fillColor=#ffffc0;strokeColor=#ff0000;" vertex="1" parent="1">
          <mxGeometry x="-12.5" y="600" width="45" height="40" as="geometry" />
        </mxCell>
        <mxCell id="za5M4Lm3zeaTr9uUQPM4-121" style="edgeStyle=none;rounded=0;orthogonalLoop=1;jettySize=auto;html=1;exitX=0.5;exitY=1;exitDx=0;exitDy=0;entryX=0.556;entryY=0.304;entryDx=0;entryDy=0;entryPerimeter=0;" edge="1" parent="1" source="za5M4Lm3zeaTr9uUQPM4-61" target="za5M4Lm3zeaTr9uUQPM4-90">
          <mxGeometry relative="1" as="geometry" />
        </mxCell>
        <mxCell id="za5M4Lm3zeaTr9uUQPM4-61" value="tambah" style="rounded=1;whiteSpace=wrap;html=1;arcSize=40;fontColor=#000000;fillColor=#ffffc0;strokeColor=#ff0000;" vertex="1" parent="1">
          <mxGeometry x="130" y="670" width="50" height="40" as="geometry" />
        </mxCell>
        <mxCell id="za5M4Lm3zeaTr9uUQPM4-117" style="edgeStyle=none;rounded=0;orthogonalLoop=1;jettySize=auto;html=1;exitX=0.5;exitY=1;exitDx=0;exitDy=0;" edge="1" parent="1" source="za5M4Lm3zeaTr9uUQPM4-63">
          <mxGeometry relative="1" as="geometry">
            <mxPoint x="-10" y="810" as="targetPoint" />
          </mxGeometry>
        </mxCell>
        <mxCell id="za5M4Lm3zeaTr9uUQPM4-63" value="edit" style="rounded=1;whiteSpace=wrap;html=1;arcSize=40;fontColor=#000000;fillColor=#ffffc0;strokeColor=#ff0000;" vertex="1" parent="1">
          <mxGeometry x="-62.5" y="670" width="50" height="40" as="geometry" />
        </mxCell>
        <mxCell id="za5M4Lm3zeaTr9uUQPM4-119" style="edgeStyle=none;rounded=0;orthogonalLoop=1;jettySize=auto;html=1;exitX=0.5;exitY=1;exitDx=0;exitDy=0;" edge="1" parent="1" source="za5M4Lm3zeaTr9uUQPM4-64">
          <mxGeometry relative="1" as="geometry">
            <mxPoint x="-10" y="810" as="targetPoint" />
          </mxGeometry>
        </mxCell>
        <mxCell id="za5M4Lm3zeaTr9uUQPM4-64" value="cetak" style="rounded=1;whiteSpace=wrap;html=1;arcSize=40;fontColor=#000000;fillColor=#ffffc0;strokeColor=#ff0000;" vertex="1" parent="1">
          <mxGeometry x="70" y="670" width="50" height="40" as="geometry" />
        </mxCell>
        <mxCell id="za5M4Lm3zeaTr9uUQPM4-120" style="edgeStyle=none;rounded=0;orthogonalLoop=1;jettySize=auto;html=1;exitX=0.25;exitY=1;exitDx=0;exitDy=0;" edge="1" parent="1" source="za5M4Lm3zeaTr9uUQPM4-65">
          <mxGeometry relative="1" as="geometry">
            <mxPoint x="-10" y="800" as="targetPoint" />
          </mxGeometry>
        </mxCell>
        <mxCell id="za5M4Lm3zeaTr9uUQPM4-65" value="hapus" style="rounded=1;whiteSpace=wrap;html=1;arcSize=40;fontColor=#000000;fillColor=#ffffc0;strokeColor=#ff0000;" vertex="1" parent="1">
          <mxGeometry y="670" width="50" height="40" as="geometry" />
        </mxCell>
        <mxCell id="za5M4Lm3zeaTr9uUQPM4-133" style="edgeStyle=none;rounded=0;orthogonalLoop=1;jettySize=auto;html=1;exitX=0.5;exitY=1;exitDx=0;exitDy=0;entryX=0.532;entryY=0.179;entryDx=0;entryDy=0;entryPerimeter=0;" edge="1" parent="1" source="za5M4Lm3zeaTr9uUQPM4-82" target="za5M4Lm3zeaTr9uUQPM4-132">
          <mxGeometry relative="1" as="geometry" />
        </mxCell>
        <mxCell id="za5M4Lm3zeaTr9uUQPM4-82" value="edit" style="rounded=1;whiteSpace=wrap;html=1;arcSize=40;fontColor=#000000;fillColor=#ffffc0;strokeColor=#ff0000;" vertex="1" parent="1">
          <mxGeometry x="935" y="670" width="50" height="40" as="geometry" />
        </mxCell>
        <mxCell id="za5M4Lm3zeaTr9uUQPM4-129" style="edgeStyle=none;rounded=0;orthogonalLoop=1;jettySize=auto;html=1;exitX=0.5;exitY=1;exitDx=0;exitDy=0;entryX=0.439;entryY=0.242;entryDx=0;entryDy=0;entryPerimeter=0;" edge="1" parent="1" source="za5M4Lm3zeaTr9uUQPM4-83" target="za5M4Lm3zeaTr9uUQPM4-92">
          <mxGeometry relative="1" as="geometry" />
        </mxCell>
        <mxCell id="za5M4Lm3zeaTr9uUQPM4-83" value="edit" style="rounded=1;whiteSpace=wrap;html=1;arcSize=40;fontColor=#000000;fillColor=#ffffc0;strokeColor=#ff0000;" vertex="1" parent="1">
          <mxGeometry x="493" y="670" width="50" height="40" as="geometry" />
        </mxCell>
        <mxCell id="za5M4Lm3zeaTr9uUQPM4-127" style="edgeStyle=none;rounded=0;orthogonalLoop=1;jettySize=auto;html=1;exitX=0.5;exitY=1;exitDx=0;exitDy=0;entryX=0.53;entryY=0.482;entryDx=0;entryDy=0;entryPerimeter=0;" edge="1" parent="1" source="za5M4Lm3zeaTr9uUQPM4-86" target="za5M4Lm3zeaTr9uUQPM4-91">
          <mxGeometry relative="1" as="geometry" />
        </mxCell>
        <mxCell id="za5M4Lm3zeaTr9uUQPM4-86" value="edi" style="rounded=1;whiteSpace=wrap;html=1;arcSize=40;fontColor=#000000;fillColor=#ffffc0;strokeColor=#ff0000;" vertex="1" parent="1">
          <mxGeometry x="440" y="670" width="50" height="40" as="geometry" />
        </mxCell>
        <mxCell id="za5M4Lm3zeaTr9uUQPM4-125" style="edgeStyle=none;rounded=0;orthogonalLoop=1;jettySize=auto;html=1;exitX=0.5;exitY=1;exitDx=0;exitDy=0;entryX=0.504;entryY=0.304;entryDx=0;entryDy=0;entryPerimeter=0;" edge="1" parent="1" source="za5M4Lm3zeaTr9uUQPM4-87" target="za5M4Lm3zeaTr9uUQPM4-91">
          <mxGeometry relative="1" as="geometry" />
        </mxCell>
        <mxCell id="za5M4Lm3zeaTr9uUQPM4-87" value="simpan aturan " style="rounded=1;whiteSpace=wrap;html=1;arcSize=40;fontColor=#000000;fillColor=#ffffc0;strokeColor=#ff0000;" vertex="1" parent="1">
          <mxGeometry x="380" y="670" width="50" height="40" as="geometry" />
        </mxCell>
        <mxCell id="za5M4Lm3zeaTr9uUQPM4-90" value="" style="line;strokeWidth=1;fillColor=none;align=left;verticalAlign=middle;spacingTop=-1;spacingLeft=3;spacingRight=3;rotatable=0;labelPosition=right;points=[];portConstraint=eastwest;" vertex="1" parent="1">
          <mxGeometry x="200" y="805" width="100" height="8" as="geometry" />
        </mxCell>
        <mxCell id="za5M4Lm3zeaTr9uUQPM4-91" value="" style="line;strokeWidth=1;fillColor=none;align=left;verticalAlign=middle;spacingTop=-1;spacingLeft=3;spacingRight=3;rotatable=0;labelPosition=right;points=[];portConstraint=eastwest;" vertex="1" parent="1">
          <mxGeometry x="405" y="805" width="55" height="8" as="geometry" />
        </mxCell>
        <mxCell id="za5M4Lm3zeaTr9uUQPM4-92" value="" style="line;strokeWidth=1;fillColor=none;align=left;verticalAlign=middle;spacingTop=-1;spacingLeft=3;spacingRight=3;rotatable=0;labelPosition=right;points=[];portConstraint=eastwest;" vertex="1" parent="1">
          <mxGeometry x="498" y="800" width="40" height="13" as="geometry" />
        </mxCell>
        <mxCell id="za5M4Lm3zeaTr9uUQPM4-94" style="edgeStyle=none;rounded=0;orthogonalLoop=1;jettySize=auto;html=1;exitX=0.5;exitY=1;exitDx=0;exitDy=0;entryX=0.5;entryY=0;entryDx=0;entryDy=0;" edge="1" parent="1" source="za5M4Lm3zeaTr9uUQPM4-98">
          <mxGeometry relative="1" as="geometry">
            <mxPoint x="150" y="670" as="targetPoint" />
          </mxGeometry>
        </mxCell>
        <mxCell id="za5M4Lm3zeaTr9uUQPM4-95" style="edgeStyle=none;rounded=0;orthogonalLoop=1;jettySize=auto;html=1;exitX=0.5;exitY=1;exitDx=0;exitDy=0;entryX=0.75;entryY=0;entryDx=0;entryDy=0;" edge="1" parent="1" source="za5M4Lm3zeaTr9uUQPM4-98" target="za5M4Lm3zeaTr9uUQPM4-100">
          <mxGeometry relative="1" as="geometry" />
        </mxCell>
        <mxCell id="za5M4Lm3zeaTr9uUQPM4-96" style="edgeStyle=none;rounded=0;orthogonalLoop=1;jettySize=auto;html=1;exitX=0.5;exitY=1;exitDx=0;exitDy=0;entryX=0.5;entryY=0;entryDx=0;entryDy=0;" edge="1" parent="1" source="za5M4Lm3zeaTr9uUQPM4-98" target="za5M4Lm3zeaTr9uUQPM4-101">
          <mxGeometry relative="1" as="geometry" />
        </mxCell>
        <mxCell id="za5M4Lm3zeaTr9uUQPM4-97" style="edgeStyle=none;rounded=0;orthogonalLoop=1;jettySize=auto;html=1;exitX=0.5;exitY=1;exitDx=0;exitDy=0;entryX=0.5;entryY=0;entryDx=0;entryDy=0;" edge="1" parent="1" source="za5M4Lm3zeaTr9uUQPM4-98" target="za5M4Lm3zeaTr9uUQPM4-99">
          <mxGeometry relative="1" as="geometry" />
        </mxCell>
        <mxCell id="za5M4Lm3zeaTr9uUQPM4-98" value="" style="rhombus;whiteSpace=wrap;html=1;fillColor=#ffffc0;strokeColor=#ff0000;" vertex="1" parent="1">
          <mxGeometry x="242.5" y="600" width="45" height="40" as="geometry" />
        </mxCell>
        <mxCell id="za5M4Lm3zeaTr9uUQPM4-122" style="edgeStyle=none;rounded=0;orthogonalLoop=1;jettySize=auto;html=1;exitX=0.5;exitY=1;exitDx=0;exitDy=0;" edge="1" parent="1" source="za5M4Lm3zeaTr9uUQPM4-99">
          <mxGeometry relative="1" as="geometry">
            <mxPoint x="260" y="810" as="targetPoint" />
          </mxGeometry>
        </mxCell>
        <mxCell id="za5M4Lm3zeaTr9uUQPM4-99" value="edit" style="rounded=1;whiteSpace=wrap;html=1;arcSize=40;fontColor=#000000;fillColor=#ffffc0;strokeColor=#ff0000;" vertex="1" parent="1">
          <mxGeometry x="192.5" y="670" width="50" height="40" as="geometry" />
        </mxCell>
        <mxCell id="za5M4Lm3zeaTr9uUQPM4-124" style="edgeStyle=none;rounded=0;orthogonalLoop=1;jettySize=auto;html=1;exitX=0.5;exitY=1;exitDx=0;exitDy=0;" edge="1" parent="1" source="za5M4Lm3zeaTr9uUQPM4-100">
          <mxGeometry relative="1" as="geometry">
            <mxPoint x="260" y="810" as="targetPoint" />
          </mxGeometry>
        </mxCell>
        <mxCell id="za5M4Lm3zeaTr9uUQPM4-100" value="cetak" style="rounded=1;whiteSpace=wrap;html=1;arcSize=40;fontColor=#000000;fillColor=#ffffc0;strokeColor=#ff0000;" vertex="1" parent="1">
          <mxGeometry x="325" y="670" width="50" height="40" as="geometry" />
        </mxCell>
        <mxCell id="za5M4Lm3zeaTr9uUQPM4-123" style="edgeStyle=none;rounded=0;orthogonalLoop=1;jettySize=auto;html=1;exitX=0.5;exitY=1;exitDx=0;exitDy=0;" edge="1" parent="1" source="za5M4Lm3zeaTr9uUQPM4-101">
          <mxGeometry relative="1" as="geometry">
            <mxPoint x="260" y="800" as="targetPoint" />
          </mxGeometry>
        </mxCell>
        <mxCell id="za5M4Lm3zeaTr9uUQPM4-101" value="hapus" style="rounded=1;whiteSpace=wrap;html=1;arcSize=40;fontColor=#000000;fillColor=#ffffc0;strokeColor=#ff0000;" vertex="1" parent="1">
          <mxGeometry x="255" y="670" width="50" height="40" as="geometry" />
        </mxCell>
        <mxCell id="za5M4Lm3zeaTr9uUQPM4-116" style="edgeStyle=none;rounded=0;orthogonalLoop=1;jettySize=auto;html=1;exitX=0.5;exitY=1;exitDx=0;exitDy=0;entryX=0.51;entryY=0.473;entryDx=0;entryDy=0;entryPerimeter=0;" edge="1" parent="1" source="za5M4Lm3zeaTr9uUQPM4-102" target="za5M4Lm3zeaTr9uUQPM4-56">
          <mxGeometry relative="1" as="geometry" />
        </mxCell>
        <mxCell id="za5M4Lm3zeaTr9uUQPM4-102" value="tambah" style="rounded=1;whiteSpace=wrap;html=1;arcSize=40;fontColor=#000000;fillColor=#ffffc0;strokeColor=#ff0000;" vertex="1" parent="1">
          <mxGeometry x="-140" y="670" width="50" height="40" as="geometry" />
        </mxCell>
        <mxCell id="za5M4Lm3zeaTr9uUQPM4-112" style="edgeStyle=none;rounded=0;orthogonalLoop=1;jettySize=auto;html=1;exitX=0.5;exitY=1;exitDx=0;exitDy=0;entryX=0.5;entryY=0;entryDx=0;entryDy=0;" edge="1" parent="1" source="za5M4Lm3zeaTr9uUQPM4-108" target="za5M4Lm3zeaTr9uUQPM4-87">
          <mxGeometry relative="1" as="geometry" />
        </mxCell>
        <mxCell id="za5M4Lm3zeaTr9uUQPM4-113" style="edgeStyle=none;rounded=0;orthogonalLoop=1;jettySize=auto;html=1;exitX=0.5;exitY=1;exitDx=0;exitDy=0;entryX=0.5;entryY=0;entryDx=0;entryDy=0;" edge="1" parent="1" source="za5M4Lm3zeaTr9uUQPM4-108" target="za5M4Lm3zeaTr9uUQPM4-86">
          <mxGeometry relative="1" as="geometry" />
        </mxCell>
        <mxCell id="za5M4Lm3zeaTr9uUQPM4-108" value="" style="rhombus;whiteSpace=wrap;html=1;fillColor=#ffffc0;strokeColor=#ff0000;" vertex="1" parent="1">
          <mxGeometry x="410" y="600" width="45" height="40" as="geometry" />
        </mxCell>
        <mxCell id="za5M4Lm3zeaTr9uUQPM4-132" value="" style="line;strokeWidth=1;fillColor=none;align=left;verticalAlign=middle;spacingTop=-1;spacingLeft=3;spacingRight=3;rotatable=0;labelPosition=right;points=[];portConstraint=eastwest;" vertex="1" parent="1">
          <mxGeometry x="940" y="817.5" width="40" height="8" as="geometry" />
        </mxCell>
        <mxCell id="za5M4Lm3zeaTr9uUQPM4-134" value="" style="line;strokeWidth=1;fillColor=none;align=left;verticalAlign=middle;spacingTop=-1;spacingLeft=3;spacingRight=3;rotatable=0;labelPosition=right;points=[];portConstraint=eastwest;" vertex="1" parent="1">
          <mxGeometry x="-120" y="988" width="910" height="12" as="geometry" />
        </mxCell>
        <mxCell id="za5M4Lm3zeaTr9uUQPM4-138" value="" style="ellipse;html=1;shape=endState;fillColor=#000000;strokeColor=#ff0000;" vertex="1" parent="1">
          <mxGeometry x="350" y="1067" width="30" height="30" as="geometry" />
        </mxCell>
        <mxCell id="za5M4Lm3zeaTr9uUQPM4-139" value="" style="endArrow=open;endFill=1;endSize=12;html=1;entryX=0.5;entryY=0;entryDx=0;entryDy=0;exitX=0.532;exitY=1.107;exitDx=0;exitDy=0;exitPerimeter=0;" edge="1" parent="1">
          <mxGeometry width="160" relative="1" as="geometry">
            <mxPoint x="364.1199999999999" y="997.2839999999999" as="sourcePoint" />
            <mxPoint x="365" y="1066" as="targetPoint" />
          </mxGeometry>
        </mxCell>
      </root>
    </mxGraphModel>
  </diagram>
</mxfile>
